<?xml version="1.0" standalone="no"?>
<!DOCTYPE svg PUBLIC "-//W3C//DTD SVG 20010904//EN"
 "http://www.w3.org/TR/2001/REC-SVG-20010904/DTD/svg10.dtd">
<svg version="1.0" xmlns="http://www.w3.org/2000/svg"
 width="100.000000pt" height="100.000000pt" viewBox="0 0 100.000000 100.000000"
 preserveAspectRatio="xMidYMid meet">
<metadata>
Created by potrace 1.14, written by Peter Selinger 2001-2017
</metadata>
<g transform="translate(0.000000,100.000000) scale(0.100000,-0.100000)"
fill="#000000" stroke="none">
<path d="M585 950 c-3 -5 -1 -10 4 -10 6 0 11 5 11 10 0 6 -2 10 -4 10 -3 0
-8 -4 -11 -10z"/>
<path d="M445 903 c-20 -25 -28 -46 -26 -65 5 -47 -8 -67 -62 -93 -38 -18 -53
-21 -59 -12 -4 7 -8 8 -8 3 0 -5 -6 -3 -14 4 -12 9 -15 8 -13 -9 1 -16 6 -20
22 -15 19 6 19 5 3 -12 -10 -10 -19 -16 -20 -13 -2 2 -13 16 -26 30 -18 20
-19 26 -7 27 8 1 22 3 30 4 17 2 20 14 5 23 -6 3 -10 1 -10 -5 0 -6 -4 -8 -10
-5 -5 3 -10 2 -10 -4 0 -10 -25 -9 -36 2 -4 4 -12 7 -18 7 -5 0 10 -21 34 -46
25 -26 39 -43 31 -39 -9 5 -12 4 -7 -3 7 -12 -23 -66 -32 -58 -3 3 0 12 7 20
20 24 20 53 1 71 -21 19 -45 11 -36 -11 4 -11 0 -11 -19 2 -14 9 -25 12 -25 6
0 -5 8 -13 18 -17 16 -6 16 -7 0 -16 -26 -15 -22 -23 18 -42 27 -14 34 -22 29
-35 -20 -49 -27 -93 -23 -152 6 -75 32 -134 83 -183 l35 -34 -24 -11 c-20 -9
-27 -7 -44 11 -14 15 -19 30 -15 48 3 15 0 30 -6 33 -7 5 -11 -3 -11 -19 0
-14 -4 -24 -9 -20 -5 3 -12 1 -16 -5 -4 -6 -10 -8 -15 -5 -5 3 -11 1 -15 -5
-3 -5 2 -11 12 -12 34 -2 38 -4 64 -21 35 -23 43 -64 17 -78 -15 -8 -22 -7
-32 6 -12 16 -17 16 -82 -5 -38 -12 -76 -24 -84 -27 -10 -3 -5 -10 18 -22 l32
-17 -22 -22 -22 -22 21 0 c12 0 32 4 45 9 54 19 78 22 78 7 0 -28 21 -28 76
-1 42 21 54 32 54 49 0 20 8 25 57 35 31 6 74 11 97 11 57 0 156 -22 155 -34
-3 -28 5 -37 51 -61 57 -29 70 -31 70 -11 0 24 14 26 65 11 70 -22 79 -20 59
10 -16 25 -16 25 17 39 22 9 29 16 19 19 -8 2 -48 14 -89 27 -67 20 -75 21
-83 6 -7 -13 -13 -14 -29 -5 -26 14 -21 47 11 76 14 12 20 23 14 23 -6 0 -19
-9 -29 -20 -16 -18 -20 -18 -46 -5 -15 8 -41 15 -56 15 -24 1 -25 2 -11 11 10
5 22 19 28 29 16 31 -16 26 -46 -7 -14 -15 -22 -19 -18 -10 7 20 -25 24 -44 5
-9 -9 -12 -9 -12 1 0 15 -51 12 -62 -4 -5 -6 -8 -4 -8 4 0 11 -4 10 -19 -3
-18 -16 -20 -16 -44 8 -26 26 -47 34 -47 17 0 -5 7 -16 15 -25 20 -20 19 -26
-4 -26 -29 0 -74 42 -106 102 -25 46 -29 64 -30 133 0 70 4 87 29 133 33 59
88 108 144 128 43 14 48 8 27 -32 -13 -26 -13 -29 2 -35 12 -4 13 -8 5 -13 -7
-4 -12 -4 -12 0 0 3 -7 1 -15 -6 -9 -7 -19 -10 -22 -6 -4 4 -3 10 3 14 6 4 14
17 18 30 7 21 6 21 -18 11 -30 -14 -42 -39 -24 -51 10 -6 9 -8 -3 -8 -17 0
-43 -46 -34 -60 3 -5 0 -12 -6 -16 -15 -9 -3 -64 19 -80 15 -12 16 -13 0 -14
-29 0 -49 11 -39 24 10 13 3 66 -9 66 -14 0 -40 -31 -40 -47 0 -11 6 -14 23
-10 21 6 21 6 -3 -13 -27 -20 -27 -21 13 -38 19 -8 27 -19 27 -36 0 -26 25
-46 57 -46 17 0 16 2 -2 18 -12 9 -26 24 -33 33 -10 13 -7 15 16 16 15 0 49 4
75 8 36 5 54 3 73 -10 21 -14 27 -14 44 -2 15 10 32 12 61 7 23 -4 51 -6 62
-4 12 2 16 2 10 -2 -7 -3 -13 -13 -13 -21 0 -9 -6 -13 -15 -9 -10 4 -15 -1
-15 -14 0 -11 5 -20 11 -20 5 0 7 5 4 10 -4 7 2 9 19 4 24 -6 26 -3 26 23 0
24 7 33 36 46 33 16 39 37 9 37 -8 0 -17 5 -21 11 -4 8 0 9 15 4 17 -5 21 -2
21 14 0 11 -9 25 -19 31 -27 14 -34 13 -27 -6 3 -8 2 -13 -3 -10 -5 3 -14 26
-20 50 -6 25 -19 50 -29 55 -10 6 -12 11 -4 11 18 0 -2 36 -29 51 -26 14 -34
6 -19 -20 6 -12 7 -21 2 -21 -5 0 -14 18 -20 40 -12 47 -2 51 56 21 161 -83
194 -311 64 -443 -20 -21 -31 -38 -25 -38 6 0 28 19 49 42 28 33 35 38 31 20
-7 -31 22 -64 51 -56 28 8 29 24 1 19 -15 -3 -24 4 -34 28 -12 29 -11 39 5 87
24 67 25 111 5 178 -22 71 -80 141 -151 179 -32 18 -52 33 -43 33 9 0 21 11
27 25 15 32 15 38 1 29 -9 -5 -10 1 -5 20 4 16 3 25 -2 22 -6 -3 -13 -18 -16
-32 -4 -15 -13 -33 -21 -40 -12 -12 -15 -10 -20 20 -4 19 -4 40 0 46 4 7 -2
18 -15 27 -12 8 -25 24 -28 34 -6 16 -11 14 -37 -18z m-229 -219 c1 -9 -1 -13
-4 -9 -4 4 -7 10 -7 13 0 4 -4 14 -9 22 -7 12 -6 13 4 3 8 -7 15 -20 16 -29z
m-20 -29 c2 -12 -2 -13 -19 -4 -32 17 -35 22 -8 14 18 -6 22 -4 16 6 -5 8 -4
10 0 6 5 -4 10 -14 11 -22z m296 -154 c-4 -10 -1 -12 8 -6 8 5 11 3 8 -5 -2
-8 -10 -16 -16 -18 -8 -2 -12 10 -11 40 0 32 2 38 8 23 5 -11 6 -26 3 -34z
m-25 4 c-1 -37 -2 -38 -30 -26 -17 6 -17 8 3 34 12 15 23 27 25 27 2 0 3 -16
2 -35z m207 -27 c-10 -16 -22 -7 -17 13 4 15 8 17 14 8 4 -7 5 -17 3 -21z
m-39 -262 c36 -12 40 -17 38 -45 0 -18 -3 -34 -5 -36 -1 -2 -28 3 -58 12 -71
19 -199 19 -273 0 -61 -16 -60 -17 -70 30 -4 19 2 24 44 38 101 34 231 34 324
1z m-430 -94 c5 -19 1 -25 -27 -37 -19 -7 -47 -17 -64 -21 -27 -7 -28 -6 -15
10 13 15 13 19 0 27 -8 5 -18 9 -24 9 -5 1 17 11 50 24 64 24 69 23 80 -12z
m620 8 c44 -17 47 -20 27 -26 -22 -6 -22 -8 -6 -25 21 -23 17 -23 -52 -3 -49
14 -54 18 -54 45 0 35 15 37 85 9z m-553 -20 l17 -30 -36 -15 c-19 -8 -37 -15
-39 -15 -8 0 10 76 20 82 17 12 20 10 38 -22z m447 17 c6 -8 8 -16 6 -19 -3
-3 -1 -17 4 -32 13 -32 1 -33 -47 -7 -30 15 -32 19 -18 30 9 8 16 20 16 27 0
18 24 18 39 1z m-414 -17 c3 -5 1 -10 -4 -10 -6 0 -11 5 -11 10 0 6 2 10 4 10
3 0 8 -4 11 -10z m355 6 c0 -3 -4 -8 -10 -11 -5 -3 -10 -1 -10 4 0 6 5 11 10
11 6 0 10 -2 10 -4z"/>
<path d="M525 211 c6 -11 2 -13 -19 -9 -14 3 -29 1 -32 -3 -3 -5 16 -9 42 -9
26 0 45 1 43 3 -2 1 -13 9 -23 17 -16 12 -18 12 -11 1z"/>
<path d="M410 198 c0 -4 4 -8 9 -8 6 0 12 4 15 8 3 5 -1 9 -9 9 -8 0 -15 -4
-15 -9z"/>
<path d="M360 188 c0 -4 9 -8 20 -8 11 0 20 4 20 9 0 6 -9 9 -20 8 -11 -1 -20
-5 -20 -9z"/>
<path d="M322 174 c-7 -8 -8 -14 -3 -14 10 0 25 19 20 25 -2 1 -10 -3 -17 -11z"/>
<path d="M330 921 c0 -5 5 -13 10 -16 6 -3 10 -2 10 4 0 5 -4 13 -10 16 -5 3
-10 2 -10 -4z"/>
<path d="M576 922 c-3 -5 6 -15 19 -22 13 -7 23 -16 21 -19 -2 -3 9 -6 25 -5
16 0 29 5 28 10 0 5 -7 8 -15 8 -8 -1 -14 6 -14 15 0 14 -2 14 -10 1 -9 -13
-12 -13 -24 3 -15 19 -22 21 -30 9z"/>
<path d="M300 911 c0 -5 5 -13 10 -16 6 -3 10 -2 10 4 0 5 -4 13 -10 16 -5 3
-10 2 -10 -4z"/>
<path d="M703 907 c4 -10 10 -23 13 -31 4 -11 0 -13 -17 -9 -15 4 -20 3 -15
-5 4 -7 12 -12 18 -12 5 0 21 -9 35 -20 14 -11 30 -17 35 -14 5 4 -1 12 -14
18 -14 7 -23 21 -22 34 0 11 -3 19 -8 16 -4 -3 -8 2 -8 10 0 8 -5 18 -12 22
-8 5 -9 2 -5 -9z"/>
<path d="M276 895 c5 -11 2 -13 -10 -9 -12 5 -15 2 -10 -10 5 -12 10 -14 19
-6 6 5 15 7 18 3 9 -8 9 1 1 21 -3 9 -10 16 -15 16 -4 0 -6 -7 -3 -15z"/>
<path d="M225 880 c-3 -5 -4 -14 0 -19 3 -5 1 -12 -4 -15 -5 -4 -13 -1 -17 5
-5 8 -3 9 6 4 9 -5 11 -4 6 4 -6 9 -11 9 -23 0 -12 -11 -12 -14 1 -21 18 -10
56 10 56 29 0 16 -17 26 -25 13z"/>
<path d="M357 851 c7 -28 -34 -39 -54 -14 -13 16 -14 16 -9 1 7 -22 -3 -50
-15 -42 -5 3 -9 1 -9 -5 0 -5 5 -13 11 -16 6 -4 8 -13 5 -20 -3 -10 3 -12 25
-10 16 2 35 8 42 12 6 4 18 8 25 9 22 4 22 7 4 57 -16 45 -35 67 -25 28z m18
-69 c-3 -3 -5 1 -5 9 -1 8 -6 4 -13 -9 l-13 -23 -12 26 c-7 15 -8 24 -2 20 5
-3 10 0 10 7 0 9 3 9 10 -2 8 -12 10 -12 10 5 1 18 2 17 11 -4 5 -13 7 -26 4
-29z m-63 -10 c-4 -11 -1 -13 8 -7 9 6 11 4 5 -4 -11 -19 -38 11 -29 33 5 13
9 14 14 5 5 -7 6 -19 2 -27z"/>
<path d="M632 825 c-15 -32 -15 -38 -2 -30 6 4 7 -1 4 -12 -5 -17 -5 -17 9 0
9 11 17 14 20 7 3 -6 4 -5 3 2 -2 7 -9 12 -15 10 -7 -1 -9 7 -5 23 8 32 0 32
-14 0z"/>
<path d="M155 821 c-3 -9 -19 -27 -35 -40 -17 -12 -28 -26 -25 -32 4 -5 2 -9
-4 -9 -9 0 -51 -70 -51 -85 0 -17 28 0 47 30 16 24 18 33 8 29 -8 -4 -15 -2
-15 4 0 6 14 15 31 21 17 6 28 15 24 21 -3 5 5 15 19 22 20 9 23 14 15 25 -9
11 -8 12 5 7 9 -3 16 -2 16 4 0 19 -29 21 -35 3z m-28 -56 c0 -8 -4 -15 -9
-15 -10 0 -11 14 -1 23 9 10 10 9 10 -8z"/>
<path d="M800 830 c0 -5 5 -10 10 -10 6 0 10 5 10 10 0 6 -4 10 -10 10 -5 0
-10 -4 -10 -10z"/>
<path d="M597 793 c-14 -31 -14 -34 -2 -18 16 20 16 20 13 0 -2 -11 2 -21 7
-22 6 -1 8 6 7 15 -2 9 -4 27 -4 40 0 12 -1 22 -2 22 -1 0 -10 -17 -19 -37z"/>
<path d="M230 812 c0 -5 7 -15 15 -22 8 -7 15 -8 15 -2 0 5 -7 15 -15 22 -8 7
-15 8 -15 2z"/>
<path d="M682 790 c-17 -28 -15 -35 6 -19 14 11 15 11 5 -1 -19 -21 -16 -34 5
-19 14 11 14 10 -2 -8 -21 -25 -39 -22 -29 5 6 15 5 16 -13 2 -18 -14 -18 -14
-5 3 8 9 11 20 8 23 -3 3 -11 -5 -18 -17 -9 -18 -9 -24 0 -27 7 -2 23 -16 36
-30 24 -25 25 -26 42 -9 17 17 17 18 -11 13 l-29 -5 23 24 c24 26 36 33 25 15
-3 -5 -1 -10 5 -10 6 0 9 -4 6 -9 -3 -5 1 -12 10 -15 9 -3 12 -11 8 -18 -5 -8
-2 -9 10 -5 9 4 15 3 11 -2 -3 -5 0 -11 7 -13 7 -3 5 -7 -6 -11 -11 -5 -15 -3
-10 5 5 7 2 9 -9 5 -12 -4 -15 -1 -12 14 3 13 0 19 -8 16 -7 -3 -11 -10 -9
-16 1 -7 -2 -10 -8 -6 -17 11 -11 -11 9 -29 18 -16 42 -14 68 7 10 7 9 12 -3
24 -13 14 -13 17 3 29 10 7 13 14 6 14 -6 0 -15 -4 -18 -10 -3 -5 -11 -10 -16
-10 -6 0 -7 5 -3 12 4 6 3 8 -4 4 -17 -10 -21 18 -4 37 16 18 3 24 -15 6 -13
-13 -46 18 -39 37 8 21 -8 17 -22 -6z"/>
<path d="M800 801 c0 -7 -4 -9 -10 -6 -5 3 -10 1 -10 -4 0 -6 4 -11 9 -11 13
0 25 20 17 27 -3 4 -6 1 -6 -6z"/>
<path d="M834 778 l-19 -23 23 19 c21 18 27 26 19 26 -2 0 -12 -10 -23 -22z"/>
<path d="M835 720 c-8 -13 13 -40 31 -40 14 0 19 -17 16 -53 -1 -10 2 -16 7
-13 5 3 11 -1 15 -9 7 -19 27 -19 52 1 19 15 19 16 -1 9 -35 -11 -40 -10 -37
8 2 9 -2 17 -7 17 -5 0 -15 15 -22 34 -7 20 -18 33 -28 32 -9 0 -15 5 -13 12
3 15 -4 16 -13 2z"/>
<path d="M290 655 c-7 -9 -10 -18 -7 -21 3 -3 10 4 17 15 13 25 8 27 -10 6z"/>
<path d="M640 651 c0 -5 5 -13 10 -16 6 -3 10 -2 10 4 0 5 -4 13 -10 16 -5 3
-10 2 -10 -4z"/>
<path d="M30 631 c0 -5 6 -13 13 -19 10 -8 13 -6 14 9 1 10 -5 19 -13 19 -8 0
-14 -4 -14 -9z"/>
<path d="M119 604 c-11 -30 -3 -46 11 -24 10 16 13 50 5 50 -3 0 -10 -12 -16
-26z"/>
<path d="M800 619 c0 -8 7 -24 15 -35 11 -15 14 -16 15 -3 0 8 -7 24 -15 35
-11 15 -14 16 -15 3z"/>
<path d="M256 598 c-21 -29 -20 -37 3 -31 10 3 21 16 24 29 5 30 -7 31 -27 2z"/>
<path d="M660 608 c0 -18 12 -33 33 -41 21 -8 22 2 1 31 -17 24 -34 29 -34 10z"/>
<path d="M15 590 c-3 -4 1 -11 7 -13 10 -4 10 -6 1 -6 -18 -1 -16 -41 2 -41 8
0 15 3 16 8 0 4 2 17 3 29 3 22 -19 40 -29 23z"/>
<path d="M930 580 c-8 -5 -10 -10 -5 -10 6 0 17 5 25 10 8 5 11 10 5 10 -5 0
-17 -5 -25 -10z"/>
<path d="M80 573 c0 -17 38 -45 50 -38 7 5 7 0 -1 -14 -12 -19 -15 -19 -31 -4
-26 24 -36 6 -10 -19 21 -21 22 -21 42 -3 11 10 19 26 18 34 -1 9 1 22 5 29
10 15 -5 16 -21 0 -9 -9 -16 -7 -32 7 -11 10 -20 14 -20 8z"/>
<path d="M790 561 c0 -5 11 -16 24 -24 22 -15 24 -14 34 9 12 25 4 32 -15 13
-8 -8 -13 -8 -17 0 -9 13 -26 15 -26 2z"/>
<path d="M799 516 c8 -10 8 -21 1 -41 -6 -15 -8 -37 -4 -48 4 -13 2 -17 -5
-13 -7 5 -8 1 -4 -9 3 -10 0 -21 -7 -25 -9 -6 -10 -15 -3 -36 11 -32 36 -34
63 -7 13 14 13 15 -2 10 -21 -8 -48 1 -48 15 0 7 5 6 14 -1 10 -9 19 -7 37 9
23 20 23 21 3 15 -13 -3 -26 1 -34 10 -7 9 -8 15 -2 15 6 0 12 -5 14 -10 2 -6
12 -4 26 5 28 20 30 40 3 25 -15 -7 -23 -6 -35 6 -20 19 -21 31 -2 15 16 -13
42 -6 50 15 6 17 1 18 -24 4 -13 -7 -19 -6 -24 6 -3 9 -2 12 5 9 11 -7 49 22
49 37 0 4 -9 3 -20 -4 -15 -10 -22 -10 -32 0 -17 17 -33 15 -19 -2z"/>
<path d="M10 510 c-8 -5 -11 -12 -7 -16 4 -4 15 0 24 9 18 18 8 23 -17 7z"/>
<path d="M900 512 c0 -5 7 -15 15 -22 8 -7 15 -8 15 -2 0 5 -7 15 -15 22 -8 7
-15 8 -15 2z"/>
<path d="M18 483 c-19 -5 -23 -20 -9 -41 6 -11 10 -11 18 0 6 7 10 21 10 31 0
9 -1 16 -1 16 -1 -1 -9 -3 -18 -6z"/>
<path d="M126 475 c-4 -13 -10 -14 -26 -5 -25 14 -26 -1 -1 -24 18 -16 20 -16
35 6 9 12 16 26 16 30 0 14 -18 8 -24 -7z"/>
<path d="M948 473 c6 -2 18 -2 25 0 6 3 1 5 -13 5 -14 0 -19 -2 -12 -5z"/>
<path d="M920 451 c0 -6 5 -13 10 -16 6 -3 10 1 10 9 0 9 -4 16 -10 16 -5 0
-10 -4 -10 -9z"/>
<path d="M131 433 c-8 -15 -13 -16 -30 -5 -25 14 -28 0 -5 -22 20 -20 24 -20
41 2 13 15 13 15 3 -6 -9 -19 -17 -22 -38 -17 -21 5 -24 4 -13 -8 14 -18 51
-29 51 -16 0 5 5 9 11 9 8 0 7 -5 -2 -16 -7 -8 -21 -13 -31 -10 -12 3 -18 0
-15 -7 2 -7 17 -12 33 -12 24 0 30 5 32 28 2 15 -1 27 -5 27 -5 0 -8 16 -8 35
2 38 -8 45 -24 18z"/>
<path d="M220 436 c0 -16 26 -46 41 -46 13 0 11 34 -3 48 -16 16 -38 15 -38
-2z"/>
<path d="M694 442 c-13 -8 -29 -52 -19 -52 19 0 45 23 45 40 0 21 -8 25 -26
12z"/>
<path d="M18 423 c-14 -3 -16 -9 -8 -22 5 -10 6 -21 3 -25 -3 -3 3 -6 14 -6
16 0 19 5 15 30 -2 17 -5 29 -6 29 0 -1 -9 -3 -18 -6z"/>
<path d="M573 404 c-7 -12 -8 -26 -3 -34 7 -12 10 -12 15 2 4 9 5 25 3 35 -4
17 -5 16 -15 -3z"/>
<path d="M490 396 c-14 -8 -28 -12 -32 -10 -5 3 -8 0 -8 -5 0 -6 7 -11 15 -11
8 0 15 -4 15 -9 0 -6 9 -9 20 -8 11 1 20 7 20 13 0 7 3 19 6 28 7 19 -3 20
-36 2z"/>
<path d="M539 398 c-7 -24 -5 -38 6 -38 8 0 11 7 8 20 -5 17 -11 26 -14 18z"/>
<path d="M925 386 c-14 -15 -35 -87 -29 -98 3 -4 1 -8 -5 -8 -6 0 -18 -14 -26
-31 -16 -29 -15 -31 2 -27 10 2 18 11 18 20 0 10 6 23 13 30 6 6 12 21 12 31
0 11 8 26 18 33 10 8 12 13 5 14 -18 0 -16 20 2 20 8 0 15 4 15 9 0 16 -14 20
-25 7z"/>
<path d="M240 378 c1 -17 25 -48 38 -48 16 0 1 40 -19 51 -14 7 -19 6 -19 -3z"/>
<path d="M689 383 c-23 -5 -44 -53 -24 -53 14 0 52 47 44 53 -2 2 -11 2 -20 0z"/>
<path d="M293 356 c4 -10 7 -21 7 -25 0 -13 49 -31 55 -21 7 11 -12 50 -25 50
-4 0 -16 3 -26 7 -14 5 -16 3 -11 -11z"/>
<path d="M618 358 c-16 -5 -28 -13 -28 -18 0 -5 -3 -15 -6 -23 -8 -22 44 -9
57 15 15 28 8 36 -23 26z"/>
<path d="M34 336 c-18 -14 -18 -15 -2 -21 10 -4 15 -11 12 -16 -3 -5 -1 -9 5
-9 18 0 21 18 4 24 -15 6 -15 8 -3 16 8 5 12 11 9 14 -3 3 -14 -1 -25 -8z"/>
<path d="M176 333 c-7 -22 -17 -27 -45 -24 -7 2 -11 -4 -9 -11 3 -7 17 -14 31
-16 30 -4 41 12 35 50 l-4 23 -8 -22z"/>
<path d="M544 342 c-18 -12 -28 -52 -12 -52 20 0 35 13 42 38 8 23 -7 30 -30
14z"/>
<path d="M751 328 c1 -45 11 -55 47 -46 17 5 32 13 32 19 0 6 -7 9 -15 5 -23
-8 -45 4 -45 25 0 10 -4 19 -10 19 -5 0 -10 -10 -9 -22z"/>
<path d="M442 327 c-6 -7 -8 -17 -4 -23 8 -13 72 -16 72 -4 0 5 3 15 6 24 5
13 -1 16 -29 16 -19 0 -39 -6 -45 -13z"/>
<path d="M280 312 c0 -12 19 -26 26 -19 2 2 -2 10 -11 17 -9 8 -15 8 -15 2z"/>
<path d="M647 313 c-4 -3 -7 -11 -7 -17 0 -6 5 -5 12 2 6 6 9 14 7 17 -3 3 -9
2 -12 -2z"/>
<path d="M57 283 c-12 -11 -8 -23 8 -23 9 0 12 -6 8 -17 -5 -14 -3 -15 7 -7 7
7 9 21 5 33 -6 21 -16 26 -28 14z"/>
<path d="M87 215 c-7 -18 6 -27 27 -19 13 5 14 9 5 20 -15 18 -25 18 -32 -1z
m23 -5 c0 -5 -5 -10 -11 -10 -5 0 -7 5 -4 10 3 6 8 10 11 10 2 0 4 -4 4 -10z"/>
</g>
</svg>
